name ./resultDataOpenSim/trcMotMarkerGrf/sub09/grf-14-02.mot
datacolumns 19
datarows 20
range 1.48800000 1.56400000
endheader

                time	     ground_force_vx	     ground_force_vy	     ground_force_vz	     ground_force_px	     ground_force_py	     ground_force_pz	   l_ground_force_vx	   l_ground_force_vy	   l_ground_force_vz	   l_ground_force_px	   l_ground_force_py	   l_ground_force_pz	     ground_torque_x	     ground_torque_y	     ground_torque_z	   l_ground_torque_x	   l_ground_torque_y	   l_ground_torque_z	
          1.48800000	         -4.36731606	        447.10402174	         -9.08339973	          1.02919431	          0.00000000	          0.04709727	          0.00000000	          0.00000000	          0.00000000	          0.00000000	          0.00000000	          0.00000000	          0.00000000	          0.25588703	          0.00000000	          0.00000000	          0.00000000	          0.00000000	
          1.49200000	         -5.06884541	        441.09934595	         -4.80012874	          1.02981565	          0.00000000	          0.04682582	          0.00000000	          0.00000000	          0.00000000	          0.00000000	          0.00000000	          0.00000000	          0.00000000	          0.59434888	          0.00000000	          0.00000000	          0.00000000	          0.00000000	
          1.49600000	         -6.51324501	        435.72237948	         -1.43571240	          1.03055376	          0.00000000	          0.04652561	          0.00000000	          0.00000000	          0.00000000	          0.00000000	          0.00000000	          0.00000000	          0.00000000	          0.87926425	          0.00000000	          0.00000000	          0.00000000	          0.00000000	
          1.50000000	         -8.02523575	        430.92570475	          0.57267103	          1.03129477	          0.00000000	          0.04623161	          0.00000000	          0.00000000	          0.00000000	          0.00000000	          0.00000000	          0.00000000	          0.00000000	          1.06662291	          0.00000000	          0.00000000	          0.00000000	          0.00000000	
          1.50400000	         -8.94691000	        426.60167389	          1.06021453	          1.03194136	          0.00000000	          0.04597588	          0.00000000	          0.00000000	          0.00000000	          0.00000000	          0.00000000	          0.00000000	          0.00000000	          1.13275680	          0.00000000	          0.00000000	          0.00000000	          0.00000000	
          1.50800000	         -8.81070975	        422.60228004	          0.15508781	          1.03245918	          0.00000000	          0.04578397	          0.00000000	          0.00000000	          0.00000000	          0.00000000	          0.00000000	          0.00000000	          0.00000000	          1.07786110	          0.00000000	          0.00000000	          0.00000000	          0.00000000	
          1.51200000	         -7.44110274	        418.81335786	         -1.75408783	          1.03282963	          0.00000000	          0.04564752	          0.00000000	          0.00000000	          0.00000000	          0.00000000	          0.00000000	          0.00000000	          0.00000000	          0.92427063	          0.00000000	          0.00000000	          0.00000000	          0.00000000	
          1.51600000	         -4.98405894	        415.20287266	         -4.11631196	          1.03307678	          0.00000000	          0.04554071	          0.00000000	          0.00000000	          0.00000000	          0.00000000	          0.00000000	          0.00000000	          0.00000000	          0.71125977	          0.00000000	          0.00000000	          0.00000000	          0.00000000	
          1.52000000	         -1.86768367	        411.81207965	         -6.32861897	          1.03324528	          0.00000000	          0.04543293	          0.00000000	          0.00000000	          0.00000000	          0.00000000	          0.00000000	          0.00000000	          0.00000000	          0.48798538	          0.00000000	          0.00000000	          0.00000000	          0.00000000	
          1.52400000	          1.31669144	        408.72612127	         -7.82959698	          1.03342039	          0.00000000	          0.04529032	          0.00000000	          0.00000000	          0.00000000	          0.00000000	          0.00000000	          0.00000000	          0.00000000	          0.30524260	          0.00000000	          0.00000000	          0.00000000	          0.00000000	
          1.52800000	          3.98109633	        406.04871248	         -8.19320638	          1.03365777	          0.00000000	          0.04508130	          0.00000000	          0.00000000	          0.00000000	          0.00000000	          0.00000000	          0.00000000	          0.00000000	          0.20640592	          0.00000000	          0.00000000	          0.00000000	          0.00000000	
          1.53200000	          5.69508424	        403.88011144	         -7.21046016	          1.03398408	          0.00000000	          0.04478607	          0.00000000	          0.00000000	          0.00000000	          0.00000000	          0.00000000	          0.00000000	          0.00000000	          0.21869953	          0.00000000	          0.00000000	          0.00000000	          0.00000000	
          1.53600000	          6.29074311	        402.30063567	         -4.92417766	          1.03443431	          0.00000000	          0.04440209	          0.00000000	          0.00000000	          0.00000000	          0.00000000	          0.00000000	          0.00000000	          0.00000000	          0.34695873	          0.00000000	          0.00000000	          0.00000000	          0.00000000	
          1.54000000	          5.90759014	        401.36643683	         -1.61089853	          1.03499242	          0.00000000	          0.04393173	          0.00000000	          0.00000000	          0.00000000	          0.00000000	          0.00000000	          0.00000000	          0.00000000	          0.57218215	          0.00000000	          0.00000000	          0.00000000	          0.00000000	
          1.54400000	          4.96822472	        401.10176881	          2.27517676	          1.03560190	          0.00000000	          0.04338969	          0.00000000	          0.00000000	          0.00000000	          0.00000000	          0.00000000	          0.00000000	          0.00000000	          0.85593393	          0.00000000	          0.00000000	          0.00000000	          0.00000000	
          1.54800000	          4.06717546	        401.48316916	          6.19191203	          1.03617472	          0.00000000	          0.04281176	          0.00000000	          0.00000000	          0.00000000	          0.00000000	          0.00000000	          0.00000000	          0.00000000	          1.14950091	          0.00000000	          0.00000000	          0.00000000	          0.00000000	
          1.55200000	          3.79603395	        402.44330970	          9.61470742	          1.03661495	          0.00000000	          0.04224143	          0.00000000	          0.00000000	          0.00000000	          0.00000000	          0.00000000	          0.00000000	          0.00000000	          1.40486011	          0.00000000	          0.00000000	          0.00000000	          0.00000000	
          1.55600000	          4.57937369	        403.90221882	         12.12290600	          1.03687836	          0.00000000	          0.04171598	          0.00000000	          0.00000000	          0.00000000	          0.00000000	          0.00000000	          0.00000000	          0.00000000	          1.58415209	          0.00000000	          0.00000000	          0.00000000	          0.00000000	
          1.56000000	          6.58030880	        405.79430239	         13.46071604	          1.03696458	          0.00000000	          0.04126083	          0.00000000	          0.00000000	          0.00000000	          0.00000000	          0.00000000	          0.00000000	          0.00000000	          1.66563069	          0.00000000	          0.00000000	          0.00000000	          0.00000000	
          1.56400000	          9.68637026	        408.06441189	         13.57737423	          1.03689203	          0.00000000	          0.04088578	          0.00000000	          0.00000000	          0.00000000	          0.00000000	          0.00000000	          0.00000000	          0.00000000	          1.64590369	          0.00000000	          0.00000000	          0.00000000	          0.00000000	
